<svg xmlns="http://www.w3.org/2000/svg" xml:space="preserve" width="15in" height="9.375in" version="1.1" style="shape-rendering:geometricPrecision; text-rendering:geometricPrecision; image-rendering:optimizeQuality; fill-rule:evenodd; clip-rule:evenodd" viewBox="0 0 15000 9375" xmlns:xlink="http://www.w3.org/1999/xlink" xmlns:xodm="http://www.corel.com/coreldraw/odm/2003">
 <defs>
  <style type="text/css">
   
    .str0 {stroke:black;stroke-width:23;stroke-miterlimit:10}
    .fil1 {fill:#70AD47;fill-rule:nonzero}
    .fil0 {fill:black;fill-rule:nonzero}
   
  </style>
 </defs>
 <g id="Layer_x0020_1">
  <metadata id="CorelCorpID_0Corel-Layer"></metadata>
  <path class="fil0" d="M2026.29 2271.56l0 2791.09 -384.38 0 0 -2791.09 -891.05 0 0 -380 2166.47 0 0 380 -891.05 0zm2079.12 2830.4c-122.3,0 -236.59,-23.3 -342.89,-69.89 -106.28,-46.59 -198.74,-109.2 -277.36,-187.81 -78.62,-78.63 -140.5,-171.08 -185.63,-277.36 -45.13,-106.29 -67.7,-219.13 -67.7,-338.52l0 -1354.04 371.27 0 0 1354.04c0,69.89 13.11,135.41 39.31,196.56 26.21,61.15 61.88,114.29 107.02,159.43 45.13,45.13 98.28,80.81 159.43,107.01 61.15,26.21 126.67,39.31 196.56,39.31 69.89,0 134.67,-13.11 194.37,-39.31 59.69,-26.2 112.11,-61.88 157.24,-107.01 45.14,-45.13 80.81,-98.28 107.02,-159.43 26.2,-61.16 39.31,-126.67 39.31,-196.56l0 -1354.04 375.64 0 0 1354.04c0,119.39 -23.3,232.23 -69.89,338.52 -46.59,106.28 -109.2,198.74 -187.82,277.36 -78.62,78.62 -171.07,141.22 -277.35,187.81 -106.28,46.59 -219.12,69.89 -338.51,69.89zm1646.7 -39.31l-375.64 0 0 -1091.97c0,-157.24 32.03,-305.75 96.09,-445.52 64.06,-139.78 151.42,-260.62 262.07,-362.53 110.66,-101.93 239.51,-182.72 386.56,-242.42 147.06,-59.69 305.03,-89.54 473.92,-89.54l0 375.64c-116.48,0 -225.67,19.66 -327.59,58.97 -101.92,39.31 -191.46,93.91 -268.63,163.8 -77.16,69.88 -137.58,151.41 -181.26,244.6 -43.68,93.19 -65.52,192.19 -65.52,297.02l0 1091.97zm2349.93 -2231.99c157.24,0 305.02,29.85 443.34,89.54 138.32,59.7 259.16,140.5 362.53,242.42 103.38,101.91 184.91,222.76 244.6,362.53 59.7,139.77 89.54,288.28 89.54,445.52l0 1091.97 -375.64 0 0 -1091.97c0,-104.83 -19.65,-203.83 -58.96,-297.02 -39.31,-93.19 -93.18,-174.72 -161.61,-244.6 -68.43,-69.89 -149.23,-124.48 -242.42,-163.8 -93.19,-39.31 -193.65,-58.97 -301.38,-58.97 -104.83,0 -203.84,19.66 -297.02,58.97 -93.18,39.31 -173.98,93.91 -242.42,163.8 -68.43,69.88 -123.03,151.41 -163.8,244.6 -40.76,93.19 -61.15,192.19 -61.15,297.02l0 1091.97 -371.27 0 0 -1091.97c0,-157.24 29.84,-305.75 89.54,-445.52 59.69,-139.78 141.23,-260.62 244.59,-362.53 103.38,-101.93 223.5,-182.72 360.35,-242.42 136.86,-59.69 283.92,-89.54 441.17,-89.54z" data-index="0" style="opacity: 1;"></path>
  <path class="fil1" d="M10507.57 2830.66c119.39,0 232.23,23.3 338.51,69.89 106.29,46.59 198.74,109.2 277.36,187.82 78.62,78.62 141.23,171.07 187.82,277.36 46.59,106.28 69.89,219.12 69.89,338.5l0 1358.42 -375.64 0 0 -1358.42c0,-69.88 -13.11,-134.67 -39.31,-194.36 -26.2,-59.7 -61.88,-112.11 -107.01,-157.25 -45.13,-45.14 -97.56,-80.81 -157.25,-107.02 -59.7,-26.2 -124.48,-39.31 -194.37,-39.31 -69.88,0 -135.4,13.11 -196.55,39.31 -61.15,26.2 -114.29,61.88 -159.43,107.02 -45.13,45.13 -80.81,97.55 -107.01,157.25 -26.2,59.69 -39.31,124.48 -39.31,194.36l0 1358.42 -375.64 0 0 -3197.3 375.64 0 0 1118.18c66.97,-49.5 144.14,-87.35 231.5,-113.56 87.36,-26.2 177.63,-39.31 270.81,-39.31zm1271.06 48.04l375.64 0 0 2183.95 -375.64 0 0 -2183.95zm0 -1013.35l375.64 0 0 506.67 -375.64 0 0 -506.67zm729.44 0l371.27 0 0 2629.48c0,66.97 31.3,123.76 93.91,170.35 62.61,46.59 137.59,69.89 224.95,69.89l0 371.27c-96.09,0 -185.64,-16.02 -268.63,-48.04 -82.98,-32.04 -155.78,-75.72 -218.39,-131.04 -62.6,-55.33 -112.11,-120.12 -148.51,-194.37 -36.4,-74.25 -54.6,-153.6 -54.6,-238.05l0 -2629.48zm956.57 0l371.27 0 0 2629.48c0,66.97 31.3,123.76 93.91,170.35 62.61,46.59 137.59,69.89 224.95,69.89l0 371.27c-96.09,0 -185.64,-16.02 -268.63,-48.04 -82.99,-32.04 -155.79,-75.72 -218.39,-131.04 -62.6,-55.33 -112.11,-120.12 -148.51,-194.37 -36.4,-74.25 -54.6,-153.6 -54.6,-238.05l0 -2629.48z" data-index="1"></path>
  
 </g>
</svg>